<?xml version="1.0" encoding="UTF-8" standalone="no"?>
<!DOCTYPE svg PUBLIC "-//W3C//DTD SVG 1.1//EN" "http://www.w3.org/Graphics/SVG/1.1/DTD/svg11.dtd">
<svg width="100%" height="100%" viewBox="0 0 512 512" version="1.1" xmlns="http://www.w3.org/2000/svg" xmlns:xlink="http://www.w3.org/1999/xlink" xml:space="preserve" xmlns:serif="http://www.serif.com/" style="fill-rule:evenodd;clip-rule:evenodd;stroke-linejoin:round;stroke-miterlimit:2;">
    <path d="M11,404L0,404L0,381L11,381L11,358L23,358L23,336L34,336L34,313L46,313L46,302L57,302L57,290L91,290L91,302L125,302L125,279L114,279L114,256L91,256L91,222L80,222L80,199L68,199L68,210L57,210L57,222L68,222L68,233L80,233L80,267L68,267L68,279L34,279L34,267L23,267L23,245L11,245L11,199L23,199L23,188L34,188L34,176L46,176L46,165L102,165L102,176L114,176L114,188L125,188L125,199L137,199L137,210L148,210L148,199L137,199L137,188L125,188L125,176L114,176L114,165L102,165L102,131L114,131L114,119L125,119L125,108L137,108L137,97L148,97L148,85L159,85L159,74L171,74L171,63L205,63L205,74L216,74L216,108L205,108L205,119L182,119L182,131L159,131L159,142L148,142L148,154L159,154L159,165L171,165L171,176L182,176L182,188L193,188L193,165L205,165L205,142L216,142L216,131L239,131L239,142L250,142L250,154L262,154L262,142L273,142L273,131L284,131L284,108L273,108L273,97L262,97L262,74L250,74L250,63L239,63L239,40L250,40L250,28L262,28L262,17L284,17L284,6L319,6L319,17L330,17L330,51L319,51L319,63L296,63L296,74L307,74L307,85L319,85L319,97L330,97L330,131L319,131L319,154L307,154L307,199L319,199L319,176L330,176L330,165L341,165L341,154L353,154L353,142L364,142L364,119L353,119L353,108L341,108L341,85L353,85L353,74L375,74L375,85L387,85L387,97L398,97L398,108L410,108L410,131L432,131L432,142L444,142L444,176L455,176L455,199L466,199L466,233L455,233L455,245L444,245L444,256L432,256L432,267L421,267L421,279L410,279L410,290L432,290L432,279L444,279L444,267L455,267L455,256L466,256L466,245L501,245L501,256L512,256L512,290L501,290L501,302L489,302L489,313L466,313L466,324L455,324L455,336L444,336L444,347L432,347L432,358L421,358L421,370L432,370L432,358L444,358L444,347L478,347L478,358L489,358L489,393L478,393L478,404L455,404L455,438L444,438L444,449L410,449L410,438L398,438L398,449L375,449L375,472L364,472L364,484L353,484L353,495L330,495L330,506L239,506L239,495L216,495L216,484L205,484L205,472L193,472L193,461L182,461L182,449L171,449L171,438L159,438L159,472L148,472L148,484L125,484L125,495L102,495L102,506L68,506L68,495L57,495L57,472L68,472L68,449L80,449L80,427L91,427L91,415L102,415L102,404L114,404L114,393L125,393L125,381L114,381L114,370L102,370L102,347L91,347L91,336L68,336L68,358L57,358L57,381L68,381L68,404L57,404L57,415L46,415L46,427L23,427L23,415L11,415L11,404ZM398,165L387,165L387,176L375,176L375,199L364,199L364,233L375,233L375,210L387,210L387,188L398,188L398,165Z" style="fill:rgb(72,132,127);fill-rule:nonzero;"/>
    <path d="M444,347L478,347L478,358L489,358L489,393L478,393L478,404L455,404L455,438L444,438L444,449L410,449L410,438L398,438L398,449L375,449L375,472L364,472L364,484L353,484L353,495L330,495L330,506L239,506L239,495L216,495L216,484L205,484L205,472L193,472L193,461L182,461L182,449L171,449L171,438L159,438L159,472L148,472L148,484L125,484L125,495L102,495L102,506L68,506L68,495L57,495L57,472L68,472L68,484L91,484L91,472L102,472L102,438L114,438L114,427L137,427L137,404L159,404L159,427L171,427L171,404L182,404L182,415L193,415L193,427L228,427L228,438L250,438L250,449L262,449L262,461L273,461L273,438L262,438L262,427L250,427L250,415L262,415L262,381L250,381L250,370L216,370L216,393L228,393L228,415L216,415L216,404L205,404L205,358L216,358L216,347L250,347L250,358L273,358L273,370L341,370L341,358L353,358L353,347L375,347L375,336L364,336L364,313L375,313L375,302L387,302L387,313L398,313L398,324L410,324L410,336L432,336L432,358L421,358L421,370L432,370L432,358L444,358L444,347Z" style="fill:rgb(72,132,127);fill-rule:nonzero;"/>
    <path d="M11,404L0,404L0,381L11,381L11,358L23,358L23,336L34,336L34,313L46,313L46,302L57,302L57,290L91,290L91,302L125,302L125,279L114,279L114,256L91,256L91,222L80,222L80,199L68,199L68,210L57,210L57,222L68,222L68,233L80,233L80,267L68,267L68,279L34,279L34,267L23,267L23,245L11,245L11,199L23,199L23,188L34,188L34,176L46,176L46,165L102,165L102,176L114,176L114,188L125,188L125,199L137,199L137,210L148,210L148,199L137,199L137,188L125,188L125,176L114,176L114,165L102,165L102,131L114,131L114,119L125,119L125,108L137,108L137,97L148,97L148,85L159,85L159,74L171,74L171,63L205,63L205,74L216,74L216,108L205,108L205,119L182,119L182,131L159,131L159,142L148,142L148,154L159,154L159,165L171,165L171,176L182,176L182,188L193,188L193,199L205,199L205,210L216,210L216,233L228,233L228,256L239,256L239,267L216,267L216,245L205,245L205,256L193,256L193,290L182,290L182,302L171,302L171,313L182,313L182,324L171,324L171,336L159,336L159,358L148,358L148,381L137,381L137,393L125,393L125,381L114,381L114,370L102,370L102,347L91,347L91,336L68,336L68,358L57,358L57,381L68,381L68,404L57,404L57,415L46,415L46,427L23,427L23,415L11,415L11,404Z" style="fill:rgb(72,132,127);fill-rule:nonzero;"/>
    <path d="M216,131L239,131L239,142L250,142L250,222L262,222L262,245L273,245L273,256L296,256L296,245L319,245L319,302L353,302L353,358L341,358L341,370L273,370L273,358L250,358L250,347L216,347L216,358L205,358L205,404L216,404L216,415L228,415L228,393L216,393L216,370L250,370L250,381L262,381L262,415L250,415L250,427L262,427L262,438L273,438L273,461L262,461L262,449L250,449L250,438L228,438L228,427L193,427L193,415L182,415L182,404L171,404L171,427L159,427L159,404L137,404L137,427L114,427L114,438L102,438L102,472L91,472L91,484L68,484L68,449L80,449L80,427L91,427L91,415L102,415L102,404L114,404L114,393L137,393L137,381L148,381L148,358L159,358L159,336L171,336L171,324L182,324L182,313L171,313L171,302L182,302L182,290L193,290L193,256L205,256L205,245L216,245L216,267L239,267L239,256L228,256L228,233L216,233L216,210L205,210L205,199L193,199L193,165L205,165L205,142L216,142L216,131Z" style="fill:rgb(72,132,127);fill-rule:nonzero;"/>
    <path d="M80,199L102,199L102,245L137,245L137,256L148,256L148,267L159,267L159,290L171,290L171,267L182,267L182,233L193,233L193,210L216,210L216,233L228,233L228,256L239,256L239,267L216,267L216,245L205,245L205,256L193,256L193,290L182,290L182,302L171,302L171,313L182,313L182,324L171,324L171,336L159,336L159,358L148,358L148,381L137,381L137,393L125,393L125,381L114,381L114,370L102,370L102,347L91,347L91,336L68,336L68,358L57,358L57,381L68,381L68,404L57,404L57,415L46,415L46,427L23,427L23,415L11,415L11,404L0,404L0,381L11,381L11,358L23,358L23,336L34,336L34,313L46,313L46,302L57,302L57,290L91,290L91,302L125,302L125,279L114,279L114,256L91,256L91,222L80,222L80,199Z" style="fill:rgb(36,103,97);fill-rule:nonzero;"/>
    <path d="M137,404L159,404L159,427L171,427L171,404L182,404L182,415L193,415L193,427L228,427L228,438L250,438L250,449L228,449L228,461L250,461L250,472L330,472L330,484L341,484L341,472L364,472L364,484L353,484L353,495L330,495L330,506L239,506L239,495L216,495L216,484L205,484L205,472L193,472L193,461L182,461L182,449L171,449L171,438L159,438L159,472L148,472L148,484L125,484L125,495L102,495L102,506L68,506L68,495L57,495L57,472L68,472L68,484L91,484L91,472L102,472L102,438L114,438L114,427L137,427L137,404Z" style="fill:rgb(157,135,107);fill-rule:nonzero;"/>
    <path d="M11,404L0,404L0,381L11,381L11,358L23,358L23,336L34,336L34,313L46,313L46,302L57,302L57,290L91,290L91,302L137,302L137,324L148,324L148,336L137,336L137,347L114,347L114,336L102,336L102,324L68,324L68,358L57,358L57,381L68,381L68,404L57,404L57,415L46,415L46,427L23,427L23,415L11,415L11,404ZM102,199L68,199L68,210L57,210L57,222L68,222L68,233L80,233L80,267L68,267L68,279L34,279L34,267L23,267L23,245L11,245L11,199L23,199L23,188L34,188L34,176L102,176L102,188L125,188L125,210L137,210L137,222L148,222L148,233L182,233L182,267L171,267L171,290L159,290L159,267L148,267L148,256L137,256L137,245L102,245L102,199ZM410,279L410,290L432,290L432,279L444,279L444,267L455,267L455,256L466,256L466,245L501,245L501,256L512,256L512,290L501,290L501,302L489,302L489,313L466,313L466,324L455,324L455,336L444,336L444,347L432,347L432,336L410,336L410,324L398,324L398,313L387,313L387,302L375,302L375,313L364,313L364,336L375,336L375,347L353,347L353,302L319,302L319,245L330,245L330,290L341,290L341,279L353,279L353,290L375,290L375,279L410,279ZM159,381L193,381L193,358L182,358L182,347L205,347L205,336L250,336L250,347L216,347L216,358L205,358L205,404L216,404L216,415L228,415L228,393L216,393L216,370L250,370L250,381L262,381L262,415L250,415L250,427L262,427L262,438L273,438L273,461L262,461L262,449L250,449L250,438L228,438L228,427L193,427L193,415L182,415L182,404L171,404L171,427L159,427L159,381Z" style="fill:rgb(72,132,127);fill-rule:nonzero;"/>
    <path d="M410,142L444,142L444,176L455,176L455,199L466,199L466,233L455,233L455,245L444,245L444,256L432,256L432,233L444,233L444,210L398,210L398,222L410,222L410,233L387,233L387,245L364,245L364,233L375,233L375,210L387,210L387,188L398,188L398,154L410,154L410,142Z" style="fill:rgb(72,132,127);fill-rule:nonzero;"/>
    <path d="M398,210L444,210L444,233L432,233L432,267L421,267L421,279L375,279L375,290L353,290L353,279L341,279L341,290L330,290L330,245L341,245L341,233L364,233L364,245L387,245L387,233L410,233L410,222L398,222L398,210Z" style="fill:rgb(72,132,127);fill-rule:nonzero;"/>
    <path d="M137,404L159,404L159,427L171,427L171,438L159,438L159,472L148,472L148,484L125,484L125,495L102,495L102,506L68,506L68,495L57,495L57,472L68,472L68,484L91,484L91,472L102,472L102,438L114,438L114,427L137,427L137,404Z" style="fill:rgb(36,103,97);fill-rule:nonzero;"/>
    <path d="M284,6L319,6L319,17L330,17L330,51L319,51L319,63L296,63L296,74L284,74L284,51L307,51L307,40L319,40L319,28L284,28L284,40L273,40L273,97L262,97L262,74L250,74L250,63L239,63L239,40L250,40L250,28L262,28L262,17L284,17L284,6Z" style="fill:rgb(72,132,127);fill-rule:nonzero;"/>
    <path d="M239,472L330,472L330,484L341,484L341,472L364,472L364,484L353,484L353,495L330,495L330,506L239,506L239,472Z" style="fill:rgb(149,124,97);fill-rule:nonzero;"/>
    <path d="M319,245L330,245L330,290L341,290L341,279L353,279L353,290L375,290L375,279L410,279L410,290L432,290L432,302L398,302L398,313L387,313L387,302L375,302L375,313L364,313L364,336L375,336L375,347L353,347L353,302L319,302L319,245Z" style="fill:rgb(36,103,97);fill-rule:nonzero;"/>
    <path d="M11,358L23,358L23,404L34,404L34,393L46,393L46,358L57,358L57,381L68,381L68,404L57,404L57,415L46,415L46,427L23,427L23,415L11,415L11,404L0,404L0,381L11,381L11,358Z" style="fill:rgb(37,103,97);fill-rule:nonzero;"/>
    <path d="M387,404L398,404L398,427L410,427L410,438L398,438L398,449L375,449L375,472L364,472L364,438L353,438L353,461L341,461L341,449L330,449L330,438L341,438L341,427L364,427L364,415L387,415L387,404Z" style="fill:rgb(148,124,97);fill-rule:nonzero;"/>
    <path d="M432,336L432,358L410,358L410,347L375,347L375,336L364,336L364,313L375,313L375,302L387,302L387,313L398,313L398,324L410,324L410,336L432,336Z" style="fill:rgb(72,132,127);fill-rule:nonzero;"/>
    <path d="M353,438L364,438L364,472L341,472L341,484L330,484L330,472L250,472L250,461L228,461L228,449L262,449L262,461L330,461L330,449L341,449L341,461L353,461L353,438Z" style="fill:rgb(178,161,133);fill-rule:nonzero;"/>
    <path d="M307,302L353,302L353,358L341,358L341,370L330,370L330,336L319,336L319,324L296,324L296,313L307,313L307,302Z" style="fill:rgb(36,103,97);fill-rule:nonzero;"/>
    <path d="M341,233L364,233L364,256L375,256L375,290L353,290L353,279L341,279L341,290L330,290L330,245L341,245L341,233Z" style="fill:rgb(72,132,127);fill-rule:nonzero;"/>
    <path d="M171,63L205,63L205,74L216,74L216,108L171,108L171,85L159,85L159,74L171,74L171,63ZM398,165L410,165L410,199L421,199L421,210L398,210L398,222L410,222L410,233L387,233L387,245L364,245L364,233L375,233L375,210L387,210L387,188L398,188L398,165ZM205,336L250,336L250,347L216,347L216,358L205,358L205,393L159,393L159,381L193,381L193,358L182,358L182,347L205,347L205,336Z" style="fill:rgb(36,103,97);fill-rule:nonzero;"/>
    <path d="M296,324L319,324L319,336L330,336L330,370L296,370L296,358L284,358L284,336L296,336L296,324Z" style="fill:rgb(72,132,127);fill-rule:nonzero;"/>
    <path d="M284,108L296,108L296,142L284,142L284,154L273,154L273,199L262,199L262,188L250,188L250,154L262,154L262,142L273,142L273,131L284,131L284,108Z" style="fill:rgb(36,103,97);fill-rule:nonzero;"/>
    <path d="M262,404L296,404L296,415L307,415L307,427L296,427L296,449L273,449L273,438L262,438L262,427L250,427L250,415L262,415L262,404Z" style="fill:rgb(216,224,212);fill-rule:nonzero;"/>
    <path d="M455,290L466,290L466,302L489,302L489,313L466,313L466,324L455,324L455,336L444,336L444,347L432,347L432,336L410,336L410,324L432,324L432,313L444,313L444,302L455,302L455,290ZM444,176L455,176L455,199L466,199L466,233L455,233L455,245L444,245L444,256L432,256L432,233L444,233L444,210L432,210L432,199L444,199L444,176ZM410,404L455,404L455,438L444,438L444,449L410,449L410,438L432,438L432,427L421,427L421,415L410,415L410,404Z" style="fill:rgb(36,103,97);fill-rule:nonzero;"/>
    <path d="M68,233L80,233L80,267L68,267L68,279L34,279L34,267L23,267L23,245L46,245L46,267L57,267L57,256L68,256L68,233Z" style="fill:rgb(69,43,19);fill-rule:nonzero;"/>
    <path d="M307,415L319,415L319,449L330,449L330,461L273,461L273,449L296,449L296,427L307,427L307,415ZM250,188L262,188L262,210L273,210L273,233L284,233L284,245L296,245L296,256L273,256L273,245L262,245L262,222L250,222L250,188ZM23,336L34,336L34,358L46,358L46,393L34,393L34,404L23,404L23,336ZM353,370L375,370L375,393L364,393L364,404L353,404L353,415L341,415L341,404L330,404L330,393L341,393L341,381L353,381L353,370ZM34,210L57,210L57,222L68,222L68,256L57,256L57,267L46,267L46,222L34,222L34,210Z" style="fill:rgb(36,103,97);fill-rule:nonzero;"/>
    <path d="M319,17L330,17L330,51L319,51L319,63L296,63L296,74L284,74L284,51L307,51L307,40L319,40L319,17Z" style="fill:rgb(69,43,19);fill-rule:nonzero;"/>
    <path d="M216,370L250,370L250,381L262,381L262,393L239,393L239,404L228,404L228,393L216,393L216,370ZM273,324L296,324L296,336L284,336L284,358L296,358L296,370L273,370L273,358L250,358L250,347L273,347L273,324ZM284,28L319,28L319,40L307,40L307,51L284,51L284,74L273,74L273,40L284,40L284,28ZM478,358L489,358L489,393L478,393L478,404L455,404L455,381L466,381L466,370L478,370L478,358Z" style="fill:rgb(36,103,97);fill-rule:nonzero;"/>
    <path d="M46,358L57,358L57,381L68,381L68,404L57,404L57,415L46,415L46,404L34,404L34,393L46,393L46,358Z" style="fill:rgb(36,103,97);fill-rule:nonzero;"/>
    <path d="M80,199L102,199L102,245L114,245L114,256L91,256L91,222L80,222L80,199ZM239,495L330,495L330,506L239,506L239,495ZM250,472L330,472L330,484L250,484L250,472Z" style="fill:rgb(69,43,19);fill-rule:nonzero;"/>
    <path d="M68,324L102,324L102,336L114,336L114,370L102,370L102,347L91,347L91,336L68,336L68,324ZM466,245L501,245L501,256L478,256L478,267L489,267L489,279L466,279L466,267L455,267L455,256L466,256L466,245Z" style="fill:rgb(36,103,97);fill-rule:nonzero;"/>
    <path d="M205,210L216,210L216,233L228,233L228,256L239,256L239,267L216,267L216,245L205,245L205,210Z" style="fill:rgb(69,43,19);fill-rule:nonzero;"/>
    <path d="M216,131L239,131L239,142L250,142L250,154L216,154L216,165L205,165L205,142L216,142L216,131Z" style="fill:rgb(36,103,97);fill-rule:nonzero;"/>
    <path d="M319,302L353,302L353,347L341,347L341,324L330,324L330,313L319,313L319,302Z" style="fill:rgb(72,132,127);fill-rule:nonzero;"/>
    <path d="M171,108L205,108L205,119L182,119L182,131L159,131L159,142L148,142L148,119L171,119L171,108Z" style="fill:rgb(69,43,19);fill-rule:nonzero;"/>
    <path d="M353,74L375,74L375,97L364,97L364,108L341,108L341,85L353,85L353,74Z" style="fill:rgb(190,89,68);fill-rule:nonzero;"/>
    <path d="M330,404L341,404L341,415L353,415L353,427L341,427L341,438L330,438L330,449L319,449L319,415L330,415L330,404Z" style="fill:rgb(216,224,212);fill-rule:nonzero;"/>
    <path d="M148,404L159,404L159,427L171,427L171,438L159,438L159,472L148,472L148,404ZM296,154L307,154L307,199L319,199L319,210L307,210L307,222L296,222L296,154Z" style="fill:rgb(69,43,19);fill-rule:nonzero;"/>
    <path d="M193,290L239,290L239,302L250,302L250,313L228,313L228,302L193,302L193,290Z" style="fill:rgb(36,103,97);fill-rule:nonzero;"/>
    <path d="M375,279L410,279L410,290L432,290L432,302L398,302L398,290L375,290L375,279Z" style="fill:rgb(69,43,19);fill-rule:nonzero;"/>
    <rect x="284" y="6" width="35" height="22" style="fill:rgb(36,103,97);fill-rule:nonzero;"/>
    <path d="M387,404L398,404L398,427L410,427L410,438L398,438L398,449L375,449L375,438L387,438L387,404Z" style="fill:rgb(69,43,19);fill-rule:nonzero;"/>
    <path d="M444,210L455,210L455,245L444,245L444,256L432,256L432,233L444,233L444,210ZM398,165L410,165L410,199L421,199L421,210L398,210L398,165Z" style="fill:rgb(36,103,97);fill-rule:nonzero;"/>
    <path d="M398,108L410,108L410,131L432,131L432,142L398,142L398,108ZM46,165L102,165L102,176L46,176L46,165ZM375,210L387,210L387,245L364,245L364,233L375,233L375,210ZM11,199L23,199L23,245L11,245L11,199Z" style="fill:rgb(69,43,19);fill-rule:nonzero;"/>
    <path d="M341,472L364,472L364,484L353,484L353,495L330,495L330,484L341,484L341,472ZM341,427L353,427L353,461L341,461L341,449L330,449L330,438L341,438L341,427Z" style="fill:rgb(149,124,97);fill-rule:nonzero;"/>
    <path d="M148,199L159,199L159,210L171,210L171,222L137,222L137,210L148,210L148,199Z" style="fill:rgb(69,43,19);fill-rule:nonzero;"/>
    <path d="M284,74L307,74L307,85L319,85L319,97L296,97L296,85L284,85L284,74ZM375,85L387,85L387,97L398,97L398,108L364,108L364,97L375,97L375,85Z" style="fill:rgb(36,103,97);fill-rule:nonzero;"/>
    <path d="M250,427L262,427L262,438L273,438L273,461L262,461L262,449L250,449L250,427Z" style="fill:rgb(72,132,127);fill-rule:nonzero;"/>
    <path d="M410,358L421,358L421,370L432,370L432,381L421,381L421,393L410,393L410,358Z" style="fill:rgb(69,43,19);fill-rule:nonzero;"/>
    <path d="M23,245L46,245L46,267L23,267L23,245ZM80,199L102,199L102,222L80,222L80,199Z" style="fill:rgb(36,103,97);fill-rule:nonzero;"/>
    <path d="M319,17L330,17L330,51L307,51L307,40L319,40L319,17ZM91,302L125,302L125,324L114,324L114,313L91,313L91,302ZM57,290L91,290L91,302L57,302L57,290ZM34,267L68,267L68,279L34,279L34,267Z" style="fill:rgb(69,43,19);fill-rule:nonzero;"/>
    <rect x="341" y="199" width="12" height="34" style="fill:rgb(36,103,97);fill-rule:nonzero;"/>
    <path d="M250,154L262,154L262,188L250,188L250,154ZM432,142L444,142L444,176L432,176L432,142ZM102,131L114,131L114,165L102,165L102,131ZM307,415L319,415L319,438L296,438L296,427L307,427L307,415Z" style="fill:rgb(69,43,19);fill-rule:nonzero;"/>
    <path d="M23,381L46,381L46,393L34,393L34,404L23,404L23,381Z" style="fill:rgb(216,224,212);fill-rule:nonzero;"/>
    <path d="M114,370L137,370L137,393L125,393L125,381L114,381L114,370Z" style="fill:rgb(69,43,19);fill-rule:nonzero;"/>
    <path d="M478,256L501,256L501,279L489,279L489,267L478,267L478,256Z" style="fill:rgb(214,222,210);fill-rule:nonzero;"/>
    <path d="M398,210L421,210L421,233L410,233L410,222L398,222L398,210Z" style="fill:rgb(200,191,169);fill-rule:nonzero;"/>
    <path d="M296,28L319,28L319,40L307,40L307,51L296,51L296,28Z" style="fill:rgb(212,221,209);fill-rule:nonzero;"/>
    <path d="M114,438L137,438L137,449L125,449L125,461L114,461L114,438Z" style="fill:rgb(215,223,211);fill-rule:nonzero;"/>
    <rect x="478" y="358" width="11" height="35" style="fill:rgb(69,43,19);fill-rule:nonzero;"/>
    <rect x="375" y="347" width="35" height="11" style="fill:rgb(36,103,97);fill-rule:nonzero;"/>
    <rect x="466" y="245" width="35" height="11" style="fill:rgb(69,43,19);fill-rule:nonzero;"/>
    <path d="M375,154L398,154L398,165L387,165L387,176L375,176L375,154Z" style="fill:rgb(36,103,97);fill-rule:nonzero;"/>
    <path d="M182,74L205,74L205,85L193,85L193,97L182,97L182,74Z" style="fill:rgb(216,224,212);fill-rule:nonzero;"/>
    <path d="M284,6L319,6L319,17L284,17L284,6ZM68,495L102,495L102,506L68,506L68,495Z" style="fill:rgb(69,43,19);fill-rule:nonzero;"/>
    <rect x="353" y="438" width="11" height="34" style="fill:rgb(149,124,97);fill-rule:nonzero;"/>
    <rect x="410" y="438" width="34" height="11" style="fill:rgb(69,43,19);fill-rule:nonzero;"/>
    <path d="M410,415L421,415L421,427L432,427L432,438L410,438L410,415Z" style="fill:rgb(216,224,212);fill-rule:nonzero;"/>
    <rect x="444" y="404" width="11" height="34" style="fill:rgb(69,43,19);fill-rule:nonzero;"/>
    <path d="M296,404L330,404L330,415L296,415L296,404ZM262,393L296,393L296,404L262,404L262,393ZM296,370L330,370L330,381L296,381L296,370Z" style="fill:rgb(36,103,97);fill-rule:nonzero;"/>
    <path d="M444,347L478,347L478,358L444,358L444,347ZM501,256L512,256L512,290L501,290L501,256Z" style="fill:rgb(69,43,19);fill-rule:nonzero;"/>
    <rect x="148" y="222" width="34" height="11" style="fill:rgb(36,103,97);fill-rule:nonzero;"/>
    <path d="M455,199L466,199L466,233L455,233L455,199ZM353,199L364,199L364,233L353,233L353,199Z" style="fill:rgb(69,43,19);fill-rule:nonzero;"/>
    <path d="M239,154L250,154L250,188L239,188L239,154ZM387,108L398,108L398,142L387,142L387,108Z" style="fill:rgb(36,103,97);fill-rule:nonzero;"/>
    <path d="M319,97L330,97L330,131L319,131L319,97ZM205,74L216,74L216,108L205,108L205,74ZM171,63L205,63L205,74L171,74L171,63Z" style="fill:rgb(69,43,19);fill-rule:nonzero;"/>
    <path d="M46,245L68,245L68,256L57,256L57,267L46,267L46,245Z" style="fill:rgb(215,223,210);fill-rule:nonzero;"/>
    <path d="M125,472L148,472L148,484L125,484L125,472ZM68,449L80,449L80,472L68,472L68,449ZM23,415L46,415L46,427L23,427L23,415ZM11,358L23,358L23,381L11,381L11,358ZM102,347L114,347L114,370L102,370L102,347ZM68,324L91,324L91,336L68,336L68,324ZM34,313L46,313L46,336L34,336L34,313ZM125,279L137,279L137,302L125,302L125,279Z" style="fill:rgb(69,43,19);fill-rule:nonzero;"/>
    <path d="M432,233L444,233L444,256L432,256L432,233ZM398,233L421,233L421,245L398,245L398,233ZM296,233L319,233L319,245L296,245L296,233ZM102,222L114,222L114,245L102,245L102,222Z" style="fill:rgb(36,103,97);fill-rule:nonzero;"/>
    <rect x="432" y="210" width="12" height="23" style="fill:rgb(72,132,127);fill-rule:nonzero;"/>
    <path d="M398,165L410,165L410,188L398,188L398,165ZM193,165L205,165L205,188L193,188L193,165ZM307,131L319,131L319,154L307,154L307,131ZM284,108L296,108L296,131L284,131L284,108ZM341,85L353,85L353,108L341,108L341,85Z" style="fill:rgb(69,43,19);fill-rule:nonzero;"/>
    <rect x="34" y="336" width="12" height="22" style="fill:rgb(72,132,127);fill-rule:nonzero;"/>
    <path d="M330,484L353,484L353,495L330,495L330,484ZM216,484L239,484L239,495L216,495L216,484ZM102,484L125,484L125,495L102,495L102,484Z" style="fill:rgb(69,43,19);fill-rule:nonzero;"/>
    <rect x="239" y="472" width="11" height="23" style="fill:rgb(149,124,97);fill-rule:nonzero;"/>
    <path d="M57,472L68,472L68,495L57,495L57,472ZM364,449L375,449L375,472L364,472L364,449Z" style="fill:rgb(69,43,19);fill-rule:nonzero;"/>
    <rect x="296" y="438" width="23" height="11" style="fill:rgb(190,89,68);fill-rule:nonzero;"/>
    <rect x="23" y="404" width="23" height="11" style="fill:rgb(36,103,97);fill-rule:nonzero;"/>
    <path d="M455,393L478,393L478,404L455,404L455,393ZM57,381L68,381L68,404L57,404L57,381ZM0,381L11,381L11,404L0,404L0,381ZM46,358L57,358L57,381L46,381L46,358ZM466,302L489,302L489,313L466,313L466,302Z" style="fill:rgb(69,43,19);fill-rule:nonzero;"/>
    <rect x="478" y="279" width="23" height="11" style="fill:rgb(37,103,97);fill-rule:nonzero;"/>
    <rect x="114" y="256" width="11" height="23" style="fill:rgb(69,43,19);fill-rule:nonzero;"/>
    <rect x="421" y="210" width="11" height="23" style="fill:rgb(36,103,97);fill-rule:nonzero;"/>
    <path d="M80,199L91,199L91,222L80,222L80,199ZM444,176L455,176L455,199L444,199L444,176ZM364,176L375,176L375,199L364,199L364,176Z" style="fill:rgb(69,43,19);fill-rule:nonzero;"/>
    <rect x="353" y="176" width="11" height="23" style="fill:rgb(36,103,97);fill-rule:nonzero;"/>
    <rect x="319" y="176" width="11" height="23" style="fill:rgb(69,43,19);fill-rule:nonzero;"/>
    <rect x="410" y="165" width="11" height="23" style="fill:rgb(36,103,97);fill-rule:nonzero;"/>
    <rect x="205" y="142" width="11" height="23" style="fill:rgb(69,43,19);fill-rule:nonzero;"/>
    <rect x="273" y="131" width="23" height="11" style="fill:rgb(36,103,97);fill-rule:nonzero;"/>
    <path d="M216,131L239,131L239,142L216,142L216,131ZM364,119L375,119L375,142L364,142L364,119Z" style="fill:rgb(69,43,19);fill-rule:nonzero;"/>
    <rect x="148" y="119" width="11" height="23" style="fill:rgb(36,103,97);fill-rule:nonzero;"/>
    <path d="M262,74L273,74L273,97L262,97L262,74ZM239,40L250,40L250,63L239,63L239,40ZM228,461L250,461L250,472L228,472L228,461ZM80,427L91,427L91,449L80,449L80,427ZM57,336L68,336L68,358L57,358L57,336Z" style="fill:rgb(69,43,19);fill-rule:nonzero;"/>
    <rect x="46" y="336" width="11" height="22" style="fill:rgb(36,103,97);fill-rule:nonzero;"/>
    <path d="M23,336L34,336L34,358L23,358L23,336ZM23,245L34,245L34,267L23,267L23,245ZM387,188L398,188L398,210L387,210L387,188ZM353,74L375,74L375,85L353,85L353,74ZM262,17L284,17L284,28L262,28L262,17Z" style="fill:rgb(69,43,19);fill-rule:nonzero;"/>
    <rect x="313" y="484" width="17" height="11" style="fill:rgb(178,161,133);fill-rule:nonzero;"/>
    <path d="M341,449L353,449L353,461L341,461L341,449ZM216,449L228,449L228,461L216,461L216,449Z" style="fill:rgb(69,43,19);fill-rule:nonzero;"/>
    <rect x="125" y="449" width="12" height="12" style="fill:rgb(190,90,70);fill-rule:nonzero;"/>
    <rect x="398" y="415" width="12" height="12" style="fill:rgb(36,103,97);fill-rule:nonzero;"/>
    <path d="M432,358L444,358L444,370L432,370L432,358ZM489,290L501,290L501,302L489,302L489,290Z" style="fill:rgb(69,43,19);fill-rule:nonzero;"/>
    <rect x="375" y="267" width="12" height="12" style="fill:rgb(36,103,97);fill-rule:nonzero;"/>
    <rect x="398" y="210" width="12" height="12" style="fill:rgb(216,224,212);fill-rule:nonzero;"/>
    <rect x="34" y="210" width="12" height="12" style="fill:rgb(36,103,97);fill-rule:nonzero;"/>
    <path d="M125,176L137,176L137,188L125,188L125,176ZM102,176L114,176L114,188L102,188L102,176ZM34,176L46,176L46,188L34,188L34,176Z" style="fill:rgb(69,43,19);fill-rule:nonzero;"/>
    <rect x="398" y="142" width="12" height="12" style="fill:rgb(36,103,97);fill-rule:nonzero;"/>
    <path d="M375,85L387,85L387,97L375,97L375,85ZM307,85L319,85L319,97L307,97L307,85Z" style="fill:rgb(69,43,19);fill-rule:nonzero;"/>
    <rect x="193" y="85" width="12" height="12" style="fill:rgb(190,89,68);fill-rule:nonzero;"/>
    <path d="M250,28L262,28L262,40L250,40L250,28ZM353,472L364,472L364,484L353,484L353,472Z" style="fill:rgb(69,43,19);fill-rule:nonzero;"/>
    <rect x="330" y="472" width="11" height="12" style="fill:rgb(178,161,133);fill-rule:nonzero;"/>
    <rect x="205" y="472" width="11" height="12" style="fill:rgb(69,43,19);fill-rule:nonzero;"/>
    <rect x="341" y="461" width="12" height="11" style="fill:rgb(178,161,133);fill-rule:nonzero;"/>
    <rect x="193" y="461" width="12" height="11" style="fill:rgb(69,43,19);fill-rule:nonzero;"/>
    <rect x="330" y="449" width="11" height="12" style="fill:rgb(178,161,133);fill-rule:nonzero;"/>
    <rect x="262" y="449" width="11" height="12" style="fill:rgb(72,132,127);fill-rule:nonzero;"/>
    <rect x="182" y="449" width="11" height="12" style="fill:rgb(69,43,19);fill-rule:nonzero;"/>
    <path d="M216,438L228,438L228,449L216,449L216,438ZM193,438L205,438L205,449L193,449L193,438Z" style="fill:rgb(178,161,133);fill-rule:nonzero;"/>
    <path d="M341,427L353,427L353,438L341,438L341,427ZM250,427L262,427L262,438L250,438L250,427Z" style="fill:rgb(36,103,97);fill-rule:nonzero;"/>
    <rect x="421" y="415" width="11" height="12" style="fill:rgb(190,89,68);fill-rule:nonzero;"/>
    <path d="M353,415L364,415L364,427L353,427L353,415ZM239,415L250,415L250,427L239,427L239,415Z" style="fill:rgb(36,103,97);fill-rule:nonzero;"/>
    <rect x="91" y="415" width="11" height="12" style="fill:rgb(69,43,19);fill-rule:nonzero;"/>
    <path d="M250,404L262,404L262,415L250,415L250,404ZM216,404L228,404L228,415L216,415L216,404Z" style="fill:rgb(36,103,97);fill-rule:nonzero;"/>
    <path d="M102,404L114,404L114,415L102,415L102,404ZM11,404L23,404L23,415L11,415L11,404Z" style="fill:rgb(69,43,19);fill-rule:nonzero;"/>
    <rect x="34" y="393" width="12" height="11" style="fill:rgb(190,90,69);fill-rule:nonzero;"/>
    <rect x="23" y="358" width="11" height="12" style="fill:rgb(72,132,127);fill-rule:nonzero;"/>
    <rect x="432" y="336" width="12" height="11" style="fill:rgb(69,43,19);fill-rule:nonzero;"/>
    <rect x="102" y="336" width="12" height="11" style="fill:rgb(36,103,97);fill-rule:nonzero;"/>
    <rect x="444" y="324" width="11" height="12" style="fill:rgb(69,43,19);fill-rule:nonzero;"/>
    <rect x="398" y="313" width="12" height="11" style="fill:rgb(36,103,97);fill-rule:nonzero;"/>
    <rect x="432" y="279" width="12" height="11" style="fill:rgb(69,43,19);fill-rule:nonzero;"/>
    <rect x="478" y="267" width="11" height="12" style="fill:rgb(190,89,68);fill-rule:nonzero;"/>
    <path d="M444,267L455,267L455,279L444,279L444,267ZM410,267L421,267L421,279L410,279L410,267ZM432,245L444,245L444,256L432,256L432,245ZM444,233L455,233L455,245L444,245L444,233Z" style="fill:rgb(69,43,19);fill-rule:nonzero;"/>
    <rect x="330" y="233" width="11" height="12" style="fill:rgb(36,103,97);fill-rule:nonzero;"/>
    <rect x="398" y="222" width="12" height="11" style="fill:rgb(190,89,68);fill-rule:nonzero;"/>
    <path d="M46,210L57,210L57,222L46,222L46,210ZM193,199L205,199L205,210L193,210L193,199ZM125,199L137,199L137,210L125,210L125,199Z" style="fill:rgb(69,43,19);fill-rule:nonzero;"/>
    <path d="M68,188L80,188L80,199L68,199L68,188ZM171,176L182,176L182,188L171,188L171,176Z" style="fill:rgb(69,43,19);fill-rule:nonzero;"/>
    <path d="M375,165L387,165L387,176L375,176L375,165ZM159,165L171,165L171,176L159,176L159,165Z" style="fill:rgb(69,43,19);fill-rule:nonzero;"/>
    <path d="M341,154L353,154L353,165L341,165L341,154ZM353,142L364,142L364,154L353,154L353,142Z" style="fill:rgb(69,43,19);fill-rule:nonzero;"/>
    <rect x="273" y="142" width="11" height="12" style="fill:rgb(36,103,97);fill-rule:nonzero;"/>
    <path d="M262,142L273,142L273,154L262,154L262,142ZM239,142L250,142L250,154L239,154L239,142ZM137,142L148,142L148,154L137,154L137,142ZM114,119L125,119L125,131L114,131L114,119Z" style="fill:rgb(69,43,19);fill-rule:nonzero;"/>
    <rect x="159" y="108" width="12" height="11" style="fill:rgb(36,103,97);fill-rule:nonzero;"/>
    <rect x="125" y="108" width="12" height="11" style="fill:rgb(69,43,19);fill-rule:nonzero;"/>
    <rect x="307" y="97" width="12" height="11" style="fill:rgb(36,103,97);fill-rule:nonzero;"/>
    <rect x="364" y="85" width="11" height="12" style="fill:rgb(216,224,212);fill-rule:nonzero;"/>
    <rect x="296" y="85" width="11" height="12" style="fill:rgb(36,103,97);fill-rule:nonzero;"/>
    <path d="M148,85L159,85L159,97L148,97L148,85ZM159,74L171,74L171,85L159,85L159,74ZM250,63L262,63L262,74L250,74L250,63Z" style="fill:rgb(69,43,19);fill-rule:nonzero;"/>
    <rect x="307" y="40" width="12" height="11" style="fill:rgb(190,89,68);fill-rule:nonzero;"/>
    <rect x="284" y="17" width="12" height="11" style="fill:rgb(73,132,127);fill-rule:nonzero;"/>
    <rect x="239" y="484" width="11" height="11" style="fill:rgb(178,161,133);fill-rule:nonzero;"/>
    <rect x="330" y="461" width="11" height="11" style="fill:rgb(69,43,19);fill-rule:nonzero;"/>
    <rect x="353" y="438" width="11" height="11" style="fill:rgb(178,161,133);fill-rule:nonzero;"/>
    <path d="M330,438L341,438L341,449L330,449L330,438ZM262,438L273,438L273,449L262,449L262,438Z" style="fill:rgb(36,103,97);fill-rule:nonzero;"/>
    <path d="M205,438L216,438L216,449L205,449L205,438ZM171,438L182,438L182,449L171,449L171,438ZM46,404L57,404L57,415L46,415L46,404Z" style="fill:rgb(69,43,19);fill-rule:nonzero;"/>
    <path d="M444,393L455,393L455,404L444,404L444,393ZM205,393L216,393L216,404L205,404L205,393ZM148,393L159,393L159,404L148,404L148,393Z" style="fill:rgb(36,103,97);fill-rule:nonzero;"/>
    <path d="M114,393L125,393L125,404L114,404L114,393ZM421,347L432,347L432,358L421,358L421,347ZM91,336L102,336L102,347L91,347L91,336ZM455,313L466,313L466,324L455,324L455,313Z" style="fill:rgb(69,43,19);fill-rule:nonzero;"/>
    <rect x="148" y="313" width="11" height="11" style="fill:rgb(72,132,127);fill-rule:nonzero;"/>
    <path d="M46,302L57,302L57,313L46,313L46,302ZM455,256L466,256L466,267L455,267L455,256ZM421,256L432,256L432,267L421,267L421,256Z" style="fill:rgb(69,43,19);fill-rule:nonzero;"/>
    <rect x="364" y="256" width="11" height="11" style="fill:rgb(36,103,97);fill-rule:nonzero;"/>
    <rect x="57" y="256" width="11" height="11" style="fill:rgb(190,89,68);fill-rule:nonzero;"/>
    <rect x="353" y="245" width="11" height="11" style="fill:rgb(36,103,97);fill-rule:nonzero;"/>
    <rect x="57" y="222" width="11" height="11" style="fill:rgb(69,43,19);fill-rule:nonzero;"/>
    <rect x="444" y="199" width="11" height="11" style="fill:rgb(72,132,127);fill-rule:nonzero;"/>
    <rect x="57" y="199" width="11" height="11" style="fill:rgb(69,43,19);fill-rule:nonzero;"/>
    <rect x="46" y="199" width="11" height="11" style="fill:rgb(36,103,97);fill-rule:nonzero;"/>
    <path d="M262,188L273,188L273,199L262,199L262,188ZM182,188L193,188L193,199L182,199L182,188ZM137,188L148,188L148,199L137,199L137,188ZM114,188L125,188L125,199L114,199L114,188Z" style="fill:rgb(69,43,19);fill-rule:nonzero;"/>
    <path d="M80,188L91,188L91,199L80,199L80,188ZM57,188L68,188L68,199L57,199L57,188Z" style="fill:rgb(36,103,97);fill-rule:nonzero;"/>
    <rect x="23" y="188" width="11" height="11" style="fill:rgb(69,43,19);fill-rule:nonzero;"/>
    <rect x="364" y="165" width="11" height="11" style="fill:rgb(36,103,97);fill-rule:nonzero;"/>
    <path d="M330,165L341,165L341,176L330,176L330,165ZM114,165L125,165L125,176L114,176L114,165ZM387,154L398,154L398,165L387,165L387,154ZM148,154L159,154L159,165L148,165L148,154ZM273,131L284,131L284,142L273,142L273,131ZM148,131L159,131L159,142L148,142L148,131Z" style="fill:rgb(69,43,19);fill-rule:nonzero;"/>
    <rect x="137" y="131" width="11" height="11" style="fill:rgb(36,103,97);fill-rule:nonzero;"/>
    <path d="M353,108L364,108L364,119L353,119L353,108ZM387,97L398,97L398,108L387,108L387,97Z" style="fill:rgb(69,43,19);fill-rule:nonzero;"/>
    <rect x="353" y="97" width="11" height="11" style="fill:rgb(216,224,212);fill-rule:nonzero;"/>
    <path d="M273,97L284,97L284,108L273,108L273,97ZM137,97L148,97L148,108L137,108L137,97ZM296,74L307,74L307,85L296,85L296,74Z" style="fill:rgb(69,43,19);fill-rule:nonzero;"/>
</svg>
